<svg version="1.1" xmlns="http://www.w3.org/2000/svg" viewBox="0 0 1051 573" width="2102" height="1146">
  <!-- svg-source:excalidraw -->
  
  <defs>
    <style>
      @font-face {
        font-family: "Virgil";
        src: url("https://excalidraw.com/Virgil.woff2");
      }
      @font-face {
        font-family: "Cascadia";
        src: url("https://excalidraw.com/Cascadia.woff2");
      }
    </style>
  </defs>
  <rect x="0" y="0" width="1051" height="573" fill="#ffffff"></rect><g stroke-linecap="round" transform="translate(374 41.46875) rotate(0 111.5 199)"><path d="M-0.83 0.34 C52.22 1.32, 101.78 0.46, 222.63 -1.51 M-0.82 -0.11 C49.44 0.49, 98.32 0.32, 223.76 0.41 M222.31 0.79 C222.07 86.99, 222.19 174.02, 223.96 397.69 M222.44 -0.16 C221.88 85.19, 221.48 169.15, 222.98 397.85 M221.91 397.93 C154.72 399.88, 87.32 399.51, 1.69 398.61 M223.28 397.74 C157.67 400.33, 93.05 399.89, 0.04 398.03 M1.04 397.91 C-2.67 256.16, -1.86 111.72, 0.37 -0.39 M-0.37 398.21 C-0.6 276.25, -0.8 153.91, -0.01 0.04" stroke="#000000" stroke-width="1" fill="none"></path></g><g transform="translate(384 55.96875) rotate(0 93 13)"><text x="0" y="18" font-family="Virgil, Segoe UI Emoji" font-size="20px" fill="#000000" text-anchor="start" style="white-space: pre;" direction="ltr">Netowrk: Monitoring</text></g><g stroke-linecap="round" transform="translate(407 204.46875) rotate(0 48 36)"><path d="M-0.46 0.43 C29.8 -1.47, 59.2 1.22, 94.5 -1.08 M-0.75 -0.11 C31.25 0.4, 62.09 0.16, 96 0.28 M94.24 -0.14 C96.69 23.65, 95.11 51.93, 94.09 70.39 M96.31 -0.59 C97.28 27.57, 95.78 53.96, 96.41 71.41 M97.61 73.86 C70.27 70.94, 46.87 71.28, 1.83 72.57 M95.52 71.28 C63.22 72, 32.07 72.82, 0.28 71.94 M0.34 72.06 C1.12 53.79, 0.52 39.33, -1.65 -1.58 M-0.13 71.04 C0.92 44.58, 1.05 16.6, 0.49 0.92" stroke="#000000" stroke-width="1" fill="none"></path></g><g transform="translate(418.5 227.46875) rotate(0 36.5 13)"><text x="36.5" y="18" font-family="Virgil, Segoe UI Emoji" font-size="20px" fill="#000000" text-anchor="middle" style="white-space: pre;" direction="ltr">influxdb</text></g><g stroke-linecap="round" transform="translate(405 104.46875) rotate(0 48 36)"><path d="M0.67 0.82 C33.81 0.02, 68.06 0.3, 97.61 1.86 M-0.24 0.91 C25.54 -0.06, 50.61 -0.13, 95.52 -0.72 M97.12 0.56 C95.7 15.53, 96.09 36.02, 96.34 72.06 M95.88 -0.83 C94.49 26.86, 94.66 51.63, 95.87 71.04 M97.11 72.98 C64.46 73.48, 28.87 72.83, 0.92 71.53 M96.32 72.3 C68.54 70.6, 40.54 70.98, 0.31 72.65 M1.03 71.3 C-0.12 55.46, -1.16 42.78, -1.82 0.26 M0.09 71.18 C-0.18 58.27, 1.08 43.76, -0.51 0.72" stroke="#000000" stroke-width="1" fill="none"></path></g><g transform="translate(413 127.46875) rotate(0 40 13)"><text x="40" y="18" font-family="Virgil, Segoe UI Emoji" font-size="20px" fill="#000000" text-anchor="middle" style="white-space: pre;" direction="ltr">telegraf</text></g><g stroke-linecap="round" transform="translate(400 310.46875) rotate(0 48 36)"><path d="M1.62 -0.6 C26.94 0.63, 51.75 2.42, 97.49 1.15 M-0.55 0.74 C19.62 0.14, 40.68 -0.21, 96.51 -0.95 M97.83 -1.21 C97.18 29.03, 94.07 56.68, 96.61 73.66 M96.87 -0.17 C96.24 15.87, 96.17 31.82, 96.25 71.84 M97.89 72.28 C65.72 71.98, 38.55 70.02, 0.9 72.1 M95.76 72.2 C71.45 70.74, 46.48 71.15, 0.1 72.91 M0.58 70.95 C1.45 46.59, 0.17 23.26, -1.92 -0.18 M-0.68 72.44 C0.01 50.5, -0.62 28.08, -0.35 -0.19" stroke="#000000" stroke-width="1" fill="none"></path></g><g transform="translate(409 333.46875) rotate(0 39 13)"><text x="39" y="18" font-family="Virgil, Segoe UI Emoji" font-size="20px" fill="#000000" text-anchor="middle" style="white-space: pre;" direction="ltr">grafana</text></g><g stroke-linecap="round"><g transform="translate(456 178.46875) rotate(0 0.3311600298463304 16.5894684093399)"><path d="M-0.65 -0.9 C-0.29 4.76, 0.81 27.19, 1.09 33.04 M1.21 1.25 C1.6 7.1, 0.77 28.35, 0.72 34.08" stroke="#000000" stroke-width="1" fill="none"></path></g><g transform="translate(456 178.46875) rotate(0 0.3311600298463304 16.5894684093399)"><path d="M-5.98 19.52 C-5.05 22.9, -2.28 25.09, 1.08 34.39 M-4.65 17.21 C-2.74 21.08, -1.7 24.38, 1.17 34.2" stroke="#000000" stroke-width="1" fill="none"></path></g><g transform="translate(456 178.46875) rotate(0 0.3311600298463304 16.5894684093399)"><path d="M5.64 19.8 C4.15 23.06, 4.48 25.19, 1.08 34.39 M6.97 17.49 C6.29 21.25, 4.74 24.49, 1.17 34.2" stroke="#000000" stroke-width="1" fill="none"></path></g></g><g stroke-linecap="round"><g transform="translate(453 261.46875) rotate(0 0.11326206952799112 29.888499666741097)"><path d="M-0.06 0.96 C0.41 10.83, 1.33 48.52, 1.77 58.22 M-1.55 0.42 C-1.16 10.51, 0.09 49.32, 0.71 59.35" stroke="#000000" stroke-width="1" fill="none"></path></g><g transform="translate(453 261.46875) rotate(0 0.11326206952799112 29.888499666741097)"><path d="M-9.02 31.72 C-9.73 38.9, -5.7 43.49, 2.38 57.79 M-9.95 32.33 C-7.94 40.81, -2.86 47.81, 0.98 58.91" stroke="#000000" stroke-width="1" fill="none"></path></g><g transform="translate(453 261.46875) rotate(0 0.11326206952799112 29.888499666741097)"><path d="M11.15 30.82 C6.14 38.18, 5.88 42.96, 2.38 57.79 M10.22 31.42 C6.12 40.21, 5.1 47.49, 0.98 58.91" stroke="#000000" stroke-width="1" fill="none"></path></g></g><g stroke-linecap="round" transform="translate(48 131.46875) rotate(0 126.5 137.5)"><path d="M-1.31 -1.01 C101.75 -1.97, 200.98 0.27, 251.54 -0.34 M-0.57 -0.3 C97.02 -1.61, 194.09 -1.87, 252.41 -0.26 M253.33 0.5 C253.99 84.48, 254.96 167.14, 253.5 273.88 M252.66 0.11 C251.71 82.77, 252.1 164.82, 253.57 274.36 M252.59 274.04 C188.86 275.02, 122.95 277.92, -1.45 276.1 M252.72 274.84 C172.9 274.82, 92.31 274.89, -0.8 275.15 M-0.08 274.43 C0.25 207.05, -0.37 136.85, 0.9 0.98 M0.58 275.75 C-2.21 191.98, -2.43 109.84, -0.63 0.44" stroke="#000000" stroke-width="1" fill="none"></path></g><g transform="translate(95 152.46875) rotate(0 85.5 13)"><text x="0" y="18" font-family="Virgil, Segoe UI Emoji" font-size="20px" fill="#000000" text-anchor="start" style="white-space: pre;" direction="ltr">Network: Internal</text></g><g stroke-linecap="round" transform="translate(82 302.46875) rotate(0 102.5 34.5)"><path d="M-0.29 -0.09 C64.74 0.34, 131.83 -0.37, 204.48 1.03 M0.28 0.67 C75.32 -2.04, 148.42 -2.29, 205.04 -0.72 M204.03 1.75 C203.85 26.09, 206.17 49.62, 203.44 69.06 M205.77 -0.02 C204.72 16.35, 203.67 31.06, 205.06 69.04 M203.31 70.34 C127.06 69.9, 51.05 68.69, 1.08 67.5 M204.57 69.16 C144.58 70.91, 85.05 71.42, 0.45 68.83 M-0.57 69.44 C-1.48 46.81, -1.01 25.06, 1.57 0.68 M0.67 68.68 C0.16 41.36, -0.1 15.24, 0.95 -0.04" stroke="#000000" stroke-width="1" fill="none"></path></g><g transform="translate(112 323.46875) rotate(0 78 13)"><text x="0" y="18" font-family="Virgil, Segoe UI Emoji" font-size="20px" fill="#000000" text-anchor="start" style="white-space: pre;" direction="ltr">haproxy internal</text></g><g transform="translate(97 215.46875) rotate(0 20.5 13)"><text x="0" y="18" font-family="Virgil, Segoe UI Emoji" font-size="20px" fill="#000000" text-anchor="start" style="white-space: pre;" direction="ltr">NPM</text></g><g transform="translate(184.5 203.96875) rotate(0 39.5 25.5)"><text x="39.5" y="18.5" font-family="Virgil, Segoe UI Emoji" font-size="20px" fill="#000000" text-anchor="middle" style="white-space: pre;" direction="ltr">Docker</text><text x="39.5" y="44" font-family="Virgil, Segoe UI Emoji" font-size="20px" fill="#000000" text-anchor="middle" style="white-space: pre;" direction="ltr">Registry</text></g><g stroke-linecap="round" transform="translate(80 203.46875) rotate(0 36 27.5)"><path d="M0.92 -0.43 C15.07 -0.48, 31.43 -2.25, 72.26 1.66 M-0.4 -0.91 C15.63 -0.4, 30.44 0.32, 72.18 -0.9 M70.79 1.22 C72.79 14.44, 70.41 26.85, 72.75 55.21 M71.13 0.23 C71.3 21.76, 71.71 43.07, 71.43 55.8 M71.48 56.51 C59.27 55.39, 44.77 54.07, 0.39 53.23 M71.91 54.13 C47.09 56.21, 22.52 56.1, -0.95 55.76 M0.77 55.5 C0.48 39.95, -1.26 29.21, 1.89 0.05 M-0.38 54.89 C0.06 33.88, -0.01 11.24, -0.86 0.03" stroke="#000000" stroke-width="1" fill="none"></path></g><g stroke-linecap="round" transform="translate(170 201.46875) rotate(0 50 32.5)"><path d="M-0.78 -1.38 C30.79 -0.31, 62.99 2.07, 100.1 -1.21 M0.87 0.35 C20.6 -0.97, 41.9 -1, 100.46 -0.48 M98.02 -1.46 C101.15 22.07, 101.14 46.93, 99.84 66.73 M100.38 0.41 C100.87 14.61, 99.26 28.86, 100.68 64.25 M98.94 66.53 C62.75 66.53, 29.24 66.66, -1.47 64.16 M100.99 64.19 C63.45 64.65, 26.37 64.64, 0.84 64.55 M1.4 65.72 C1.27 43.63, -0.78 22.95, -1.61 0.15 M0.46 65.96 C1.16 51.88, 0.73 37.28, 0.45 -0.43" stroke="#000000" stroke-width="1" fill="none"></path></g><g stroke-linecap="round"><g transform="translate(120 254) rotate(0 -1.0257783094633623 29.526158261140807)"><path d="M-0.02 -0.48 C-0.17 9.37, -0.9 49.79, -1.38 59.88 M-1.48 -1.78 C-1.7 8.11, -2.16 50.38, -2.01 60.83" stroke="#000000" stroke-width="1" fill="none"></path></g><g transform="translate(120 254) rotate(0 -1.0257783094633623 29.526158261140807)"><path d="M-13.06 33.66 C-11.26 38.48, -8.23 48.22, -2.76 59.55 M-12.51 32.37 C-9.24 42.95, -5.23 51.13, -2.76 60.5" stroke="#000000" stroke-width="1" fill="none"></path></g><g transform="translate(120 254) rotate(0 -1.0257783094633623 29.526158261140807)"><path d="M7.46 33.67 C3.87 38.48, 1.51 48.22, -2.76 59.55 M8.01 32.38 C4.4 42.83, 1.52 51, -2.76 60.5" stroke="#000000" stroke-width="1" fill="none"></path></g></g><g stroke-linecap="round"><g transform="translate(226 260) rotate(0 0.21322817840149355 23.676363593633283)"><path d="M0.43 -0.59 C0.33 7.02, -0.79 38.84, -0.91 46.61 M-0.8 1.71 C-0.51 9.41, 1.4 40.43, 1.33 47.94" stroke="#000000" stroke-width="1" fill="none"></path></g><g transform="translate(226 260) rotate(0 0.21322817840149355 23.676363593633283)"><path d="M-8.39 24.62 C-5.44 31.71, -4 37.32, -0.21 46.28 M-7 25.26 C-6.05 31.88, -3.05 36.92, 0.94 48.45" stroke="#000000" stroke-width="1" fill="none"></path></g><g transform="translate(226 260) rotate(0 0.21322817840149355 23.676363593633283)"><path d="M7.68 24.11 C6.15 31.4, 3.1 37.15, -0.21 46.28 M9.07 24.75 C5.78 31.51, 4.55 36.68, 0.94 48.45" stroke="#000000" stroke-width="1" fill="none"></path></g></g><g stroke-linecap="round" transform="translate(92 456) rotate(0 85 36.5)"><path d="M0.02 -0.12 C56.52 0.5, 116.82 3.01, 168.35 1.25 M-0.68 -0.79 C54.97 2.39, 108.71 2.42, 170.1 -0.37 M169.71 -1.85 C168.56 28.61, 169.01 56.31, 169.09 74.58 M170.22 -0.9 C170.33 18.63, 169.83 38.39, 170.25 73.83 M169.35 71.55 C128.52 71.32, 87.66 72.58, 0.69 73.39 M169.52 72.71 C107.79 71.63, 46.97 72.77, -0.88 73.61 M-0.04 74.63 C1.12 56.18, 0.35 38.92, 0.94 0.18 M-0.29 73.08 C-0.67 53.71, -0.48 35.06, -0.06 -0.09" stroke="#000000" stroke-width="1" fill="none"></path></g><g transform="translate(144 484) rotate(0 36.5 13)"><text x="0" y="18" font-family="Virgil, Segoe UI Emoji" font-size="20px" fill="#000000" text-anchor="start" style="white-space: pre;" direction="ltr">:::8080</text></g><g stroke-linecap="round"><g transform="translate(180 355) rotate(0 -1.509448076109436 56.359153015757926)"><path d="M-0.17 0 C-0.43 18.94, -1.62 94.95, -1.94 113.77 M-1.71 -1.05 C-2.1 17.55, -2.66 92.84, -2.85 112.04" stroke="#000000" stroke-width="1" fill="none"></path></g><g transform="translate(180 355) rotate(0 -1.509448076109436 56.359153015757926)"><path d="M-12.87 83.87 C-8.85 91.31, -7.59 100.51, -3.19 111.74 M-13.75 82.79 C-9.76 90.58, -7.54 100.02, -3.11 112.99" stroke="#000000" stroke-width="1" fill="none"></path></g><g transform="translate(180 355) rotate(0 -1.509448076109436 56.359153015757926)"><path d="M7.65 84.05 C6.11 91.41, 1.81 100.56, -3.19 111.74 M6.77 82.98 C5.15 90.62, 1.76 100.01, -3.11 112.99" stroke="#000000" stroke-width="1" fill="none"></path></g></g><g stroke-linecap="round"><g transform="translate(402 347) rotate(0 -60.05395236461891 -0.09484448284840141)"><path d="M-0.94 -0.03 C-21.27 -0.29, -101.06 -0.38, -120.88 -0.42 M0.77 -1.09 C-19.29 -0.67, -98.41 0.56, -118.62 0.9" stroke="#000000" stroke-width="1" fill="none"></path></g><g transform="translate(402 347) rotate(0 -60.05395236461891 -0.09484448284840141)"><path d="M-90.66 -11.27 C-102.24 -5.55, -112.97 -2.77, -118.49 2.01 M-89.66 -9.55 C-101.13 -6.55, -111.57 -2.48, -119.49 -0.04" stroke="#000000" stroke-width="1" fill="none"></path></g><g transform="translate(402 347) rotate(0 -60.05395236461891 -0.09484448284840141)"><path d="M-90.32 9.24 C-102.23 6.88, -113.09 1.57, -118.49 2.01 M-89.33 10.96 C-100.93 6.61, -111.5 3.32, -119.49 -0.04" stroke="#000000" stroke-width="1" fill="none"></path></g></g><g transform="translate(715 49) rotate(0 70.5 13)"><text x="0" y="18" font-family="Virgil, Segoe UI Emoji" font-size="20px" fill="#000000" text-anchor="start" style="white-space: pre;" direction="ltr">Network Public</text></g><g stroke-linecap="round" transform="translate(646 35) rotate(0 185 150.5)"><path d="M-0.24 0.33 C148.64 2.59, 295.93 0.97, 369.02 0.83 M-0.3 0.29 C131.42 -1.96, 261.7 -1.56, 370.03 -0.53 M370.31 -1.14 C370.94 108.91, 370.51 221.04, 369.62 300.95 M369.32 -0.55 C370.36 72.76, 371.02 145.87, 369.63 300.53 M369.27 301.86 C232.29 300.14, 92.87 299.2, 0.63 300.27 M370.07 301.45 C265.93 300.98, 160.91 301.5, -0.14 301.03 M0.44 299.83 C-1.24 217.59, -2.91 134.85, -0.16 0.96 M-0.15 300.29 C-2.1 238.84, -2.28 175.84, -0.41 -0.5" stroke="#000000" stroke-width="1" fill="none"></path></g><g stroke-linecap="round" transform="translate(662.5 222.5) rotate(0 71.5 34.5)"><path d="M-1.14 0.7 C56.07 -1.8, 110.91 -1.08, 141.88 0.66 M0.74 0.15 C32.87 0.32, 67.97 1.56, 143.72 -0.09 M142.64 -0.69 C143.34 20.65, 144.8 41.43, 143 67.08 M142.75 1 C142.18 26.81, 142.04 53.66, 142.63 68.51 M141.16 70.95 C103.06 69.53, 63.5 70.07, 1.15 68.65 M143.87 68.28 C100.93 68.24, 57.48 68.77, -0.33 69.51 M0.03 69.12 C1.34 53.85, -2.28 35.73, 1.36 0.65 M-0.26 68.5 C-0.95 53.61, -1.12 40.57, 0.65 0.64" stroke="#000000" stroke-width="1" fill="none"></path></g><g transform="translate(668.5 244.5) rotate(0 67 13)"><text x="0" y="18" font-family="Virgil, Segoe UI Emoji" font-size="20px" fill="#000000" text-anchor="start" style="white-space: pre;" direction="ltr">haproxy public</text></g><g transform="translate(683 127) rotate(0 50 13)"><text x="0" y="18" font-family="Virgil, Segoe UI Emoji" font-size="20px" fill="#000000" text-anchor="start" style="white-space: pre;" direction="ltr">Your App 1</text></g><g stroke-linecap="round" transform="translate(664 116) rotate(0 71 26)"><path d="M1.31 0 C51.23 0.66, 100.69 -1.88, 140.81 -1.37 M0.18 0.81 C39.75 0.36, 79.31 -0.98, 142.2 -0.51 M140.56 -1.71 C142.38 19.98, 142.03 41.36, 141.29 53.27 M141.1 0.73 C142.17 15.84, 141.36 32.46, 141.16 52.74 M141.81 52.21 C99.81 54.32, 58.29 51.62, -1.69 53.64 M142 52.72 C88.47 53.48, 36.19 54.2, -0.62 52.66 M0.29 51.86 C-0.66 37.29, -1.4 19.59, -0.95 -0.87 M-0.92 52.6 C-0.09 39.75, 0.82 24.73, -0.05 -0.45" stroke="#000000" stroke-width="1" fill="none"></path></g><g transform="translate(840 131) rotate(0 54 13)"><text x="0" y="18" font-family="Virgil, Segoe UI Emoji" font-size="20px" fill="#000000" text-anchor="start" style="white-space: pre;" direction="ltr">Your App 2</text></g><g stroke-linecap="round" transform="translate(818 109) rotate(0 71 28.5)"><path d="M1.67 -0.23 C38.28 -0.72, 71.33 1.16, 142.04 0.09 M0.19 0.34 C53.08 -1.8, 107.11 -0.9, 141.26 -0.82 M142.03 0.41 C142.84 12.97, 141.73 26.95, 143.38 58.92 M142.75 0.98 C142.39 13.34, 142.23 26.33, 142.24 57.55 M142.34 57.36 C84.85 58.23, 29.42 57.37, 1.77 55.69 M141.53 56.04 C95.62 55.46, 49.47 55.79, 0.92 57.32 M-0.93 57.21 C1.28 46.24, 0.77 32.22, 1.5 1.94 M0.55 57.31 C-0.4 40.36, -0.1 24.25, 0.52 -0.33" stroke="#000000" stroke-width="1" fill="none"></path></g><g transform="translate(875 239) rotate(0 36.5 13)"><text x="0" y="18" font-family="Virgil, Segoe UI Emoji" font-size="20px" fill="#000000" text-anchor="start" style="white-space: pre;" direction="ltr">certbot</text></g><g stroke-linecap="round" transform="translate(846 232) rotate(0 68 24.5)"><path d="M0.41 1.32 C29.21 0.19, 59.44 1.36, 137.92 -1.32 M137.96 1.75 C136.4 11.99, 135.71 21.59, 137.1 50.92 M136.36 48.07 C103.93 49.09, 70.72 51.01, -1.31 49.56 M-1.92 49.38 C-1.63 37.83, -0.98 26.09, 0.63 -1.84" stroke="#000000" stroke-width="1.5" fill="none" stroke-dasharray="8 9"></path></g><g stroke-linecap="round"><g transform="translate(727 168) rotate(0 -0.7359471282270533 31.17722144424917)"><path d="M-0.98 -0.57 C-1.29 9.95, -1.12 52.66, -1.15 62.92 M0.7 1.75 C0.17 11.95, -1.73 51.27, -2.18 61.28" stroke="#000000" stroke-width="1" fill="none"></path></g><g transform="translate(727 168) rotate(0 -0.7359471282270533 31.17722144424917)"><path d="M-12.05 32.4 C-6.42 42.71, -6.43 52.13, -0.35 62.74 M-11.25 33.64 C-8.8 40.64, -5.63 50.37, -2.61 61.54" stroke="#000000" stroke-width="1" fill="none"></path></g><g transform="translate(727 168) rotate(0 -0.7359471282270533 31.17722144424917)"><path d="M8.45 33.35 C6.76 43.16, -0.56 52.23, -0.35 62.74 M9.24 34.6 C5.52 41.22, 2.52 50.66, -2.61 61.54" stroke="#000000" stroke-width="1" fill="none"></path></g></g><g stroke-linecap="round"><g transform="translate(858 165) rotate(0 -32.247474201610316 33.366821911931055)"><path d="M-0.54 -0.8 C-11.33 10.26, -54.12 56.18, -64.95 67.53 M1.38 1.4 C-9.55 12.6, -54.55 54.46, -65.88 65.69" stroke="#000000" stroke-width="1" fill="none"></path></g><g transform="translate(858 165) rotate(0 -32.247474201610316 33.366821911931055)"><path d="M-53.95 38.85 C-55.25 45.52, -59.41 55.43, -65.77 67.6 M-53.55 39.21 C-56.24 45.58, -59.97 54.01, -65.23 65.14" stroke="#000000" stroke-width="1" fill="none"></path></g><g transform="translate(858 165) rotate(0 -32.247474201610316 33.366821911931055)"><path d="M-39.75 53.67 C-45.25 56.05, -53.46 61.72, -65.77 67.6 M-39.35 54.03 C-45.84 56.53, -53.41 60.95, -65.23 65.14" stroke="#000000" stroke-width="1" fill="none"></path></g></g><g stroke-linecap="round"><g transform="translate(848 253) rotate(0 -24.15518409095239 -3.8897589872823914)"><path d="M0.78 -0.65 C-7.21 -2.34, -39.87 -8.04, -48.09 -9.4 M-0.28 1.62 C-8.42 0.04, -40.87 -6.58, -49.09 -8.07" stroke="#000000" stroke-width="1" fill="none"></path></g><g transform="translate(848 253) rotate(0 -24.15518409095239 -3.8897589872823914)"><path d="M-26.06 -12.04 C-32.53 -11.52, -38.4 -8.64, -47.95 -9.49 M-24 -12.47 C-31.81 -10.55, -40.03 -10.37, -48.75 -8.43" stroke="#000000" stroke-width="1" fill="none"></path></g><g transform="translate(848 253) rotate(0 -24.15518409095239 -3.8897589872823914)"><path d="M-29.24 4.35 C-34.89 0.16, -39.86 -1.66, -47.95 -9.49 M-27.18 3.93 C-33.86 0.62, -41.06 -4.43, -48.75 -8.43" stroke="#000000" stroke-width="1" fill="none"></path></g></g><g stroke-linecap="round" transform="translate(650 376.5) rotate(0 85 36.5)"><path d="M1.06 0.48 C38.85 -0.87, 78.84 -1.05, 171.79 1.24 M-0.88 0.73 C56.77 -2.27, 110.65 -0.8, 169.3 0.99 M168.41 1.47 C169.14 28.78, 169.9 55.43, 170.76 74.59 M169.85 0.57 C170.4 20.42, 170.06 42.48, 170.1 72 M169.57 73.23 C124.31 70.64, 81.11 70.79, 1.78 73.22 M170.1 72.89 C125.87 71.27, 81.35 71.33, 0.32 73.04 M1.15 72.2 C1.08 56.05, 0 36.51, 1.24 -1.49 M0.8 73.53 C0.6 53.47, 0.25 34.95, 0.13 -0.66" stroke="#000000" stroke-width="1" fill="none"></path></g><g transform="translate(686 401.5) rotate(0 53.5 13)"><text x="0" y="18" font-family="Virgil, Segoe UI Emoji" font-size="20px" fill="#000000" text-anchor="start" style="white-space: pre;" direction="ltr">:::80 :::443</text></g><g stroke-linecap="round"><g transform="translate(733 292) rotate(0 0.27143657595377135 44.99495786822868)"><path d="M0.03 -0.05 C0.39 14.97, 1.89 76.18, 1.95 91.11 M-1.41 -1.12 C-1.1 14.11, 1.39 74.28, 1.5 89.57" stroke="#000000" stroke-width="1" fill="none"></path></g><g transform="translate(733 292) rotate(0 0.27143657595377135 44.99495786822868)"><path d="M-9.58 63.25 C-4.31 68.52, -3.83 76.05, 2.34 90.65 M-10.18 61.26 C-7.15 67.6, -5.65 72.38, 0.97 89.63" stroke="#000000" stroke-width="1" fill="none"></path></g><g transform="translate(733 292) rotate(0 0.27143657595377135 44.99495786822868)"><path d="M10.93 62.7 C10.41 68.13, 5.09 75.82, 2.34 90.65 M10.34 60.72 C9.13 67.02, 6.39 71.91, 0.97 89.63" stroke="#000000" stroke-width="1" fill="none"></path></g></g><g stroke-linecap="round"><g transform="translate(662 254) rotate(0 -78.884925749898 -52.55087332427502)"><path d="M0.08 -0.58 C-26.05 -17.89, -131.31 -87.14, -157.85 -104.53" stroke="#000000" stroke-width="1.5" fill="none" stroke-dasharray="8 9"></path></g><g transform="translate(662 254) rotate(0 -78.884925749898 -52.55087332427502)"><path d="M-129.61 -97.37 C-134 -101.01, -140.83 -100.96, -156.14 -105.63" stroke="#000000" stroke-width="1.5" fill="none"></path></g><g transform="translate(662 254) rotate(0 -78.884925749898 -52.55087332427502)"><path d="M-140.88 -80.22 C-142.79 -87.49, -147.24 -91.07, -156.14 -105.63" stroke="#000000" stroke-width="1.5" fill="none"></path></g></g><g transform="translate(545 133) rotate(0 32 38.5)"><text x="0" y="17.666666666666668" font-family="Virgil, Segoe UI Emoji" font-size="20px" fill="#000000" text-anchor="start" style="white-space: pre;" direction="ltr">unix</text><text x="0" y="43.333333333333336" font-family="Virgil, Segoe UI Emoji" font-size="20px" fill="#000000" text-anchor="start" style="white-space: pre;" direction="ltr">stats</text><text x="0" y="69" font-family="Virgil, Segoe UI Emoji" font-size="20px" fill="#000000" text-anchor="start" style="white-space: pre;" direction="ltr">socket</text></g><g stroke-linecap="round" transform="translate(10 10) rotate(0 515.5 276.5)"><path d="M-0.35 -0.59 C231.11 3.37, 463.49 3.89, 1031.49 -0.33 M1031.21 0.43 C1032.92 168.46, 1033.61 337.18, 1030.53 553.32 M1030.85 552.3 C637.35 556.37, 242.15 557.03, 0.5 552.33 M-0.31 553.16 C0.91 365.41, 0.34 177.29, 0.38 0.69" stroke="#000000" stroke-width="1.5" fill="none" stroke-dasharray="8 9"></path></g></svg>